<svg width="20" height="20" viewBox="0 0 20 20" fill="none" xmlns="http://www.w3.org/2000/svg">
<path d="M14.1667 2.02473H5.83333C3.33333 2.02473 1.66666 3.6914 1.66666 6.1914V11.1914C1.66666 13.6914 3.33333 15.3581 5.83333 15.3581V17.1331C5.83333 17.7997 6.575 18.1997 7.125 17.8247L10.8333 15.3581H14.1667C16.6667 15.3581 18.3333 13.6914 18.3333 11.1914V6.1914C18.3333 3.6914 16.6667 2.02473 14.1667 2.02473ZM10 12.1664C9.65 12.1664 9.375 11.8831 9.375 11.5414C9.375 11.1997 9.65 10.9164 10 10.9164C10.35 10.9164 10.625 11.1997 10.625 11.5414C10.625 11.8831 10.35 12.1664 10 12.1664ZM11.05 8.70808C10.725 8.92474 10.625 9.06641 10.625 9.29974V9.47474C10.625 9.81641 10.3417 10.0997 10 10.0997C9.65833 10.0997 9.375 9.81641 9.375 9.47474V9.29974C9.375 8.33307 10.0833 7.85807 10.35 7.67473C10.6583 7.4664 10.7583 7.32473 10.7583 7.10807C10.7583 6.6914 10.4167 6.34973 10 6.34973C9.58333 6.34973 9.24166 6.6914 9.24166 7.10807C9.24166 7.44973 8.95833 7.73307 8.61666 7.73307C8.275 7.73307 7.99166 7.44973 7.99166 7.10807C7.99166 5.99973 8.89166 5.09973 10 5.09973C11.1083 5.09973 12.0083 5.99973 12.0083 7.10807C12.0083 8.05807 11.3083 8.53308 11.05 8.70808Z" fill="#929EAE"/>
</svg>
