<svg width="20" height="20" viewBox="0 0 20 20" fill="none" xmlns="http://www.w3.org/2000/svg">
<path d="M13.15 1.66666H6.85C3.7 1.66666 2.91666 2.50832 2.91666 5.86666V15.25C2.91666 17.4667 4.13333 17.9917 5.60833 16.4083L5.61666 16.4C6.3 15.675 7.34167 15.7333 7.93333 16.525L8.775 17.65C9.45 18.5417 10.5417 18.5417 11.2167 17.65L12.0583 16.525C12.6583 15.725 13.7 15.6667 14.3833 16.4C15.8667 17.9833 17.075 17.4583 17.075 15.2417V5.86666C17.0833 2.50832 16.3 1.66666 13.15 1.66666ZM12.2917 8.95832H7.70833C7.36666 8.95832 7.08333 8.67499 7.08333 8.33332C7.08333 7.99166 7.36666 7.70832 7.70833 7.70832H12.2917C12.6333 7.70832 12.9167 7.99166 12.9167 8.33332C12.9167 8.67499 12.6333 8.95832 12.2917 8.95832Z" fill="#929EAE"/>
</svg>
